<svg width="599.9743408203125px" height="172.8000030517578px" xmlns="http://www.w3.org/2000/svg" viewBox="-49.98717041015624 -11.400001525878906 599.9743408203125 172.8000030517578" style="background: rgba(0, 0, 0, 0);" preserveAspectRatio="xMidYMid"><defs>
  <filter id="editing-scratch" x="-100%" y="-100%" width="400%" height="400%">
    <!-- COLOR -->
    <feFlood flood-color="#ddd" flood-opacity="0.75" result="COLOR-blu"></feFlood>
    <feFlood flood-color="#666" flood-opacity="0.4" result="COLOR-red"></feFlood>
    <!-- COLOR END -->

    <!-- Texture -->
    <feTurbulence baseFrequency=".05" type="fractalNoise" numOctaves="3" seed="0" result="Texture_10"></feTurbulence>
    <feColorMatrix type="matrix" values="0 0 0 0 0,
    0 0 0 0 0,
    0 0 0 0 0,
    0 0 0 -2.1 1.1" in="Texture_10" result="Texture_20"></feColorMatrix>

    <feColorMatrix result="Texture_30" type="matrix" values="0 0 0 0 0,
    0 0 0 0 0,
    0 0 0 0 0,
    0 0 0 -1.7 1.8" in="Texture_10"></feColorMatrix>
    <!-- Texture -->

    <!-- FILL -->
    <feOffset dx="-3" dy="4" in="SourceAlpha" result="FILL_10"></feOffset>
    <feDisplacementMap scale="17" in="FILL_10" in2="Texture_10" result="FILL_20"></feDisplacementMap>
    <feComposite operator="in" in="Texture_30" in2="FILL_20" result="FILL_40"></feComposite>
    <feComposite operator="in" in="COLOR-blu" in2="FILL_40" result="FILL_50"></feComposite>
    <!-- FILL END-->

    <!-- OUTLINE -->
    <feMorphology operator="dilate" radius="3" in="SourceGraphic" result="OUTLINE_10"></feMorphology>
    <feComposite operator="out" in="OUTLINE_10" in2="SourceGraphic" result="OUTLINE_20"></feComposite>
    <feDisplacementMap scale="7" in="OUTLINE_20" in2="Texture_10" result="OUTLINE_30"></feDisplacementMap>
    <feComposite operator="arithmetic" k2="-1" k3="1" in="Texture_20" in2="OUTLINE_30" result="OUTLINE_40"></feComposite>
    <!-- OUTLINE END-->

    <!-- BEVEL OUTLINE -->
    <feConvolveMatrix order="8,8" divisor="1" kernelMatrix="1 0 0 0 0 0 0 0 0 1 0 0 0 0 0 0 0 0 1 0 0 0 0 0 0 0 0 1 0 0 0 0 0 0 0 0 1 0 0 0 0 0 0 0 0 1 0 0 0 0 0 0 0 0 1 0 0 0 0 0 0 0 0 1 " in="SourceGraphic" result="BEVEL_10"></feConvolveMatrix>
    <feMorphology operator="dilate" radius="2" in="BEVEL_10" result="BEVEL_20"></feMorphology>
    <feComposite operator="out" in="BEVEL_20" in2="BEVEL_10" result="BEVEL_30"></feComposite>
    <feDisplacementMap scale="7" in="BEVEL_30" in2="Texture_10" result="BEVEL_40"></feDisplacementMap>
    <feComposite operator="arithmetic" k2="-1" k3="1" in="Texture_20" in2="BEVEL_40" result="BEVEL_50"></feComposite>
    <feOffset dx="-7" dy="-7" in="BEVEL_50" result="BEVEL_60"></feOffset>
    <feComposite operator="out" in="BEVEL_60" in2="OUTLINE_10" result="BEVEL_70"></feComposite>
    <!-- BEVEL OUTLINE END -->

    <!-- BEVEL FILL -->
    <feOffset dx="-9" dy="-9" in="BEVEL_10" result="BEVEL-FILL_10"></feOffset>
    <feComposite operator="out" in="BEVEL-FILL_10" in2="OUTLINE_10" result="BEVEL-FILL_20"></feComposite>
    <feDisplacementMap scale="17" in="BEVEL-FILL_20" in2="Texture_10" result="BEVEL-FILL_30"></feDisplacementMap>
    <feComposite operator="in" in="COLOR-red" in2="BEVEL-FILL_30" result="BEVEL-FILL_50"></feComposite> <!-- -->
    <!-- BEVEL FILL END-->

    <feMerge result="merge2">
     <feMergeNode in="BEVEL-FILL_50"></feMergeNode>
     <feMergeNode in="BEVEL_70"></feMergeNode>
     <feMergeNode in="FILL_50"></feMergeNode>
      <feMergeNode in="OUTLINE_40"></feMergeNode>
    </feMerge>
  </filter>
</defs>
<g filter="url(#editing-scratch)"><g transform="translate(40.23115783929825, 106.00999641418457)"><path d="M21.25 0.32L21.25 0.32Q15.87 0.32 13.12-2.66L13.12-2.66L13.12-2.66Q10.37-5.63 10.37-10.62L10.37-10.62L10.37-10.62Q10.37-13.44 11.20-17.47L11.20-17.47L15.17-35.78L15.17-35.78Q15.30-36.29 15.78-38.59L15.78-38.59L15.78-38.59Q16.26-40.90 16.26-43.58L16.26-43.58L16.26-43.58Q16.26-45.12 15.65-45.89L15.65-45.89L15.65-45.89Q15.04-46.66 14.02-46.66L14.02-46.66L14.02-46.66Q12.10-46.66 9.54-44.83L9.54-44.83L9.54-44.83Q6.98-43.01 4.16-39.23L4.16-39.23L4.16-39.23Q3.26-38.02 2.18-38.02L2.18-38.02L2.18-38.02Q1.28-38.02 0.61-38.88L0.61-38.88L0.61-38.88Q-0.06-39.74-0.06-40.83L-0.06-40.83L-0.06-40.83Q-0.06-42.82 1.73-45.31L1.73-45.31L1.73-45.31Q8.26-54.27 17.02-54.27L17.02-54.27L17.02-54.27Q20.93-54.27 23.14-51.90L23.14-51.90L23.14-51.90Q25.34-49.54 25.34-44.93L25.34-44.93L25.34-44.93Q25.34-41.66 24.90-38.91L24.90-38.91L24.90-38.91Q24.45-36.16 23.36-31.42L23.36-31.42L20.74-19.71L20.74-19.71Q20.61-19.14 20.29-17.66L20.29-17.66L20.29-17.66Q19.97-16.19 19.78-14.88L19.78-14.88L19.78-14.88Q19.58-13.57 19.58-12.29L19.58-12.29L19.58-12.29Q19.58-10.24 20.74-9.02L20.74-9.02L20.74-9.02Q21.89-7.81 24-7.81L24-7.81L24-7.81Q27.84-7.81 31.78-11.90L31.78-11.90L31.78-11.90Q35.71-16 39.07-25.12L39.07-25.12L39.07-25.12Q42.43-34.24 44.29-48.45L44.29-48.45L44.29-48.45Q44.74-51.71 45.60-52.99L45.60-52.99L45.60-52.99Q46.46-54.27 48.96-54.27L48.96-54.27L48.96-54.27Q51.20-54.27 52.29-52.93L52.29-52.93L52.29-52.93Q53.38-51.58 53.38-48.58L53.38-48.58L53.38-48.58Q53.38-46.85 52.96-44.03L52.96-44.03L52.96-44.03Q52.54-41.22 51.71-36.16L51.71-36.16L51.71-36.16Q49.98-26.37 48.96-18.18L48.96-18.18L48.96-18.18Q48.45-14.46 48.45-12.67L48.45-12.67L48.45-12.67Q48.45-10.05 49.63-8.67L49.63-8.67L49.63-8.67Q50.82-7.30 52.80-7.30L52.80-7.30L52.80-7.30Q54.91-7.30 56.93-8.70L56.93-8.70L56.93-8.70Q58.94-10.11 61.70-13.38L61.70-13.38L61.70-13.38Q62.46-14.27 63.42-14.27L63.42-14.27L63.42-14.27Q64.26-14.27 64.74-13.50L64.74-13.50L64.74-13.50Q65.22-12.74 65.22-11.39L65.22-11.39L65.22-11.39Q65.22-8.90 64-7.42L64-7.42L64-7.42Q60.67-3.39 57.41-1.54L57.41-1.54L57.41-1.54Q54.14 0.32 50.56 0.32L50.56 0.32L50.56 0.32Q45.25 0.32 42.43-2.40L42.43-2.40L42.43-2.40Q39.62-5.12 39.62-9.47L39.62-9.47L39.62-9.47Q39.62-11.90 40.64-18.94L40.64-18.94L40.64-18.94Q37.44-9.54 32.54-4.61L32.54-4.61L32.54-4.61Q27.65 0.32 21.25 0.32L21.25 0.32ZM112.51-40.96L112.51-40.96Q112.51-35.52 108.67-31.58L108.67-31.58L108.67-31.58Q104.83-27.65 97.47-25.92L97.47-25.92L97.47-25.92Q101.44-24.83 103.49-22.37L103.49-22.37L103.49-22.37Q105.54-19.90 105.54-16.70L105.54-16.70L105.54-16.70Q105.54-11.65 102.37-7.94L102.37-7.94L102.37-7.94Q99.20-4.22 93.12-2.21L93.12-2.21L93.12-2.21Q87.04-0.19 78.46-0.19L78.46-0.19L78.46-0.19Q75.26-0.19 73.34-0.38L73.34-0.38L73.34-0.38Q73.28 1.41 71.81 2.30L71.81 2.30L71.81 2.30Q70.34 3.20 68.03 3.20L68.03 3.20L68.03 3.20Q65.73 3.20 64.86 2.18L64.86 2.18L64.86 2.18Q64 1.15 64.13-0.83L64.13-0.83L64.13-0.83Q64.70-9.79 66.37-19.62L66.37-19.62L66.37-19.62Q68.03-29.44 70.59-38.59L70.59-38.59L70.59-38.59Q71.04-40.19 72.38-40.83L72.38-40.83L72.38-40.83Q73.73-41.47 75.90-41.47L75.90-41.47L75.90-41.47Q79.81-41.47 79.81-39.30L79.81-39.30L79.81-39.30Q79.81-38.40 79.42-37.25L79.42-37.25L79.42-37.25Q77.76-32.26 76.10-23.71L76.10-23.71L76.10-23.71Q74.43-15.17 73.73-7.42L73.73-7.42L73.73-7.42Q76.80-7.17 78.72-7.17L78.72-7.17L78.72-7.17Q87.68-7.17 91.87-9.76L91.87-9.76L91.87-9.76Q96.06-12.35 96.06-16.38L96.06-16.38L96.06-16.38Q96.06-19.20 93.66-21.12L93.66-21.12L93.66-21.12Q91.26-23.04 85.63-23.23L85.63-23.23L85.63-23.23Q84.35-23.30 83.84-23.87L83.84-23.87L83.84-23.87Q83.33-24.45 83.33-25.73L83.33-25.73L83.33-25.73Q83.33-27.58 84.10-28.74L84.10-28.74L84.10-28.74Q84.86-29.89 86.91-29.95L86.91-29.95L86.91-29.95Q91.46-30.08 95.14-31.30L95.14-31.30L95.14-31.30Q98.82-32.51 100.93-34.72L100.93-34.72L100.93-34.72Q103.04-36.93 103.04-39.87L103.04-39.87L103.04-39.87Q103.04-43.58 99.39-45.73L99.39-45.73L99.39-45.73Q95.74-47.87 88.19-47.87L88.19-47.87L88.19-47.87Q81.34-47.87 74.94-46.11L74.94-46.11L74.94-46.11Q68.54-44.35 64.06-41.66L64.06-41.66L64.06-41.66Q62.02-40.45 60.61-40.45L60.61-40.45L60.61-40.45Q59.46-40.45 58.85-41.25L58.85-41.25L58.85-41.25Q58.24-42.05 58.24-43.26L58.24-43.26L58.24-43.26Q58.24-44.86 58.91-46.02L58.91-46.02L58.91-46.02Q59.58-47.17 62.14-48.64L62.14-48.64L62.14-48.64Q67.52-51.71 74.75-53.44L74.75-53.44L74.75-53.44Q81.98-55.17 89.54-55.17L89.54-55.17L89.54-55.17Q101.12-55.17 106.82-51.26L106.82-51.26L106.82-51.26Q112.51-47.36 112.51-40.96L112.51-40.96ZM158.91-49.09L158.91-49.09Q158.91-47.17 158.11-46.21L158.11-46.21L158.11-46.21Q157.31-45.25 155.52-45.25L155.52-45.25L155.52-45.25Q155.39-43.90 154.94-40.58L154.94-40.58L154.94-40.58Q154.30-36.10 154.24-35.58L154.24-35.58L154.24-35.58Q148.54 6.85 130.50 6.85L130.50 6.85L130.50 6.85Q125.18 6.85 122.21 3.84L122.21 3.84L122.21 3.84Q119.23 0.83 119.23-3.71L119.23-3.71L119.23-3.71Q119.23-11.84 126.14-18.08L126.14-18.08L126.14-18.08Q133.06-24.32 144.32-28.42L144.32-28.42L144.32-28.42Q145.02-32.96 145.41-36.54L145.41-36.54L146.56-46.21L146.56-46.21Q142.72-46.59 139.39-46.59L139.39-46.59L139.39-46.59Q130.50-46.59 126.27-44.86L126.27-44.86L126.27-44.86Q122.05-43.14 122.05-39.23L122.05-39.23L122.05-39.23Q122.05-37.31 123.33-35.07L123.33-35.07L123.33-35.07Q123.71-34.43 123.71-33.73L123.71-33.73L123.71-33.73Q123.71-32.38 122.34-31.33L122.34-31.33L122.34-31.33Q120.96-30.27 119.36-30.27L119.36-30.27L119.36-30.27Q117.31-30.27 116.22-32L116.22-32L116.22-32Q114.43-34.94 114.43-38.85L114.43-38.85L114.43-38.85Q114.43-54.21 141.31-54.21L141.31-54.21L141.31-54.21Q149.12-54.21 155.26-52.67L155.26-52.67L155.26-52.67Q158.91-51.78 158.91-49.09L158.91-49.09ZM131.33 0L131.33 0Q134.46 0 137.60-4.74L137.60-4.74L137.60-4.74Q140.74-9.47 143.10-21.31L143.10-21.31L143.10-21.31Q127.49-14.46 127.49-4.54L127.49-4.54L127.49-4.54Q127.49-2.37 128.51-1.18L128.51-1.18L128.51-1.18Q129.54 0 131.33 0L131.33 0ZM164.93 0.32L164.93 0.32Q162.11 0.32 160.67-1.22L160.67-1.22L160.67-1.22Q159.23-2.75 159.23-5.25L159.23-5.25L159.23-5.25Q159.23-8.13 160.86-9.86L160.86-9.86L160.86-9.86Q162.50-11.58 165.44-11.58L165.44-11.58L165.44-11.58Q168.26-11.58 169.70-10.21L169.70-10.21L169.70-10.21Q171.14-8.83 171.14-6.14L171.14-6.14L171.14-6.14Q171.14-3.20 169.47-1.44L169.47-1.44L169.47-1.44Q167.81 0.32 164.93 0.32L164.93 0.32ZM202.88 0.32L202.88 0.32Q195.26 0.32 189.63-2.46L189.63-2.46L189.63-2.46Q184-5.25 180.99-10.37L180.99-10.37L180.99-10.37Q177.98-15.49 177.98-22.27L177.98-22.27L177.98-22.27Q177.98-31.68 181.54-38.98L181.54-38.98L181.54-38.98Q185.09-46.27 191.17-50.27L191.17-50.27L191.17-50.27Q197.25-54.27 204.67-54.27L204.67-54.27L204.67-54.27Q211.58-54.27 215.17-50.72L215.17-50.72L215.17-50.72Q218.75-47.17 218.75-41.34L218.75-41.34L218.75-41.34Q218.75-37.44 217.38-35.07L217.38-35.07L217.38-35.07Q216-32.70 213.44-32.70L213.44-32.70L213.44-32.70Q211.65-32.70 210.62-33.54L210.62-33.54L210.62-33.54Q209.60-34.37 209.60-35.97L209.60-35.97L209.60-35.97Q209.60-36.54 209.86-38.08L209.86-38.08L209.86-38.08Q210.24-40 210.24-41.15L210.24-41.15L210.24-41.15Q210.24-46.98 204.03-46.98L204.03-46.98L204.03-46.98Q199.81-46.98 195.97-44.22L195.97-44.22L195.97-44.22Q192.13-41.47 189.76-36.13L189.76-36.13L189.76-36.13Q187.39-30.78 187.39-23.42L187.39-23.42L187.39-23.42Q187.39-15.74 191.68-11.55L191.68-11.55L191.68-11.55Q195.97-7.36 204.35-7.36L204.35-7.36L204.35-7.36Q208.51-7.36 212.77-8.42L212.77-8.42L212.77-8.42Q217.02-9.47 222.21-11.65L222.21-11.65L222.21-11.65Q223.17-12.03 223.81-12.03L223.81-12.03L223.81-12.03Q224.83-12.03 225.34-11.26L225.34-11.26L225.34-11.26Q225.86-10.50 225.86-9.28L225.86-9.28L225.86-9.28Q225.86-5.38 221.63-3.52L221.63-3.52L221.63-3.52Q217.09-1.54 212.19-0.61L212.19-0.61L212.19-0.61Q207.30 0.32 202.88 0.32L202.88 0.32ZM239.04 0.32L239.04 0.32Q233.66 0.32 230.91-2.66L230.91-2.66L230.91-2.66Q228.16-5.63 228.16-10.62L228.16-10.62L228.16-10.62Q228.16-13.44 228.99-17.47L228.99-17.47L232.96-35.78L232.96-35.78Q233.09-36.29 233.57-38.59L233.57-38.59L233.57-38.59Q234.05-40.90 234.05-43.58L234.05-43.58L234.05-43.58Q234.05-45.12 233.44-45.89L233.44-45.89L233.44-45.89Q232.83-46.66 231.81-46.66L231.81-46.66L231.81-46.66Q229.89-46.66 227.33-44.83L227.33-44.83L227.33-44.83Q224.77-43.01 221.95-39.23L221.95-39.23L221.95-39.23Q221.06-38.02 219.97-38.02L219.97-38.02L219.97-38.02Q219.07-38.02 218.40-38.88L218.40-38.88L218.40-38.88Q217.73-39.74 217.73-40.83L217.73-40.83L217.73-40.83Q217.73-42.82 219.52-45.31L219.52-45.31L219.52-45.31Q226.05-54.27 234.82-54.27L234.82-54.27L234.82-54.27Q238.72-54.27 240.93-51.90L240.93-51.90L240.93-51.90Q243.14-49.54 243.14-44.93L243.14-44.93L243.14-44.93Q243.14-41.66 242.69-38.91L242.69-38.91L242.69-38.91Q242.24-36.16 241.15-31.42L241.15-31.42L238.53-19.71L238.53-19.71Q238.40-19.14 238.08-17.66L238.08-17.66L238.08-17.66Q237.76-16.19 237.57-14.88L237.57-14.88L237.57-14.88Q237.38-13.57 237.38-12.29L237.38-12.29L237.38-12.29Q237.38-10.24 238.53-9.02L238.53-9.02L238.53-9.02Q239.68-7.81 241.79-7.81L241.79-7.81L241.79-7.81Q245.63-7.81 249.57-11.90L249.57-11.90L249.57-11.90Q253.50-16 256.86-25.12L256.86-25.12L256.86-25.12Q260.22-34.24 262.08-48.45L262.08-48.45L262.08-48.45Q262.53-51.71 263.39-52.99L263.39-52.99L263.39-52.99Q264.26-54.27 266.75-54.27L266.75-54.27L266.75-54.27Q268.99-54.27 270.08-52.93L270.08-52.93L270.08-52.93Q271.17-51.58 271.17-48.58L271.17-48.58L271.17-48.58Q271.17-46.85 270.75-44.03L270.75-44.03L270.75-44.03Q270.34-41.22 269.50-36.16L269.50-36.16L269.50-36.16Q267.78-26.37 266.75-18.18L266.75-18.18L266.75-18.18Q266.24-14.46 266.24-12.67L266.24-12.67L266.24-12.67Q266.24-10.05 267.42-8.67L267.42-8.67L267.42-8.67Q268.61-7.30 270.59-7.30L270.59-7.30L270.59-7.30Q272.70-7.30 274.72-8.70L274.72-8.70L274.72-8.70Q276.74-10.11 279.49-13.38L279.49-13.38L279.49-13.38Q280.26-14.27 281.22-14.27L281.22-14.27L281.22-14.27Q282.05-14.27 282.53-13.50L282.53-13.50L282.53-13.50Q283.01-12.74 283.01-11.39L283.01-11.39L283.01-11.39Q283.01-8.90 281.79-7.42L281.79-7.42L281.79-7.42Q278.46-3.39 275.20-1.54L275.20-1.54L275.20-1.54Q271.94 0.32 268.35 0.32L268.35 0.32L268.35 0.32Q263.04 0.32 260.22-2.40L260.22-2.40L260.22-2.40Q257.41-5.12 257.41-9.47L257.41-9.47L257.41-9.47Q257.41-11.90 258.43-18.94L258.43-18.94L258.43-18.94Q255.23-9.54 250.34-4.61L250.34-4.61L250.34-4.61Q245.44 0.32 239.04 0.32L239.04 0.32ZM293.95 0.32L293.95 0.32Q289.54 0.32 285.98-1.86L285.98-1.86L285.98-1.86Q282.43-4.03 280.38-8.16L280.38-8.16L280.38-8.16Q278.34-12.29 278.34-17.92L278.34-17.92L278.34-17.92Q278.34-27.65 282.50-35.94L282.50-35.94L282.50-35.94Q286.66-44.22 294.78-49.25L294.78-49.25L294.78-49.25Q302.91-54.27 314.30-54.27L314.30-54.27L314.30-54.27Q317.25-54.27 320.61-53.82L320.61-53.82L320.61-53.82Q323.97-53.38 326.72-52.48L326.72-52.48L326.72-52.48Q328.51-51.97 328.51-49.92L328.51-49.92L328.51-49.92Q328.51-48.26 327.26-46.78L327.26-46.78L327.26-46.78Q326.02-45.31 324.35-45.31L324.35-45.31L324.35-45.31Q323.84-45.31 323.58-45.38L323.58-45.38L323.58-45.38Q320.26-46.14 317.89-46.50L317.89-46.50L317.89-46.50Q315.52-46.85 312.90-46.85L312.90-46.85L312.90-46.85Q304.77-46.85 299.07-42.91L299.07-42.91L299.07-42.91Q293.38-38.98 290.56-32.51L290.56-32.51L290.56-32.51Q287.74-26.05 287.74-18.56L287.74-18.56L287.74-18.56Q287.74-13.12 289.89-10.14L289.89-10.14L289.89-10.14Q292.03-7.17 295.49-7.17L295.49-7.17L295.49-7.17Q299.39-7.17 302.34-10.37L302.34-10.37L302.34-10.37Q305.28-13.57 307.71-20.74L307.71-20.74L307.71-20.74Q310.14-27.90 312.51-40.19L312.51-40.19L312.51-40.19Q312.90-41.98 314.05-42.62L314.05-42.62L314.05-42.62Q315.20-43.26 317.12-43.26L317.12-43.26L317.12-43.26Q321.66-43.26 321.66-40.32L321.66-40.32L321.66-40.32Q321.66-39.81 321.47-39.04L321.47-39.04L321.47-39.04Q319.81-32.83 318.43-25.31L318.43-25.31L318.43-25.31Q317.06-17.79 317.06-13.89L317.06-13.89L317.06-13.89Q317.06-10.43 318.08-8.86L318.08-8.86L318.08-8.86Q319.10-7.30 321.22-7.30L321.22-7.30L321.22-7.30Q323.26-7.30 325.12-8.67L325.12-8.67L325.12-8.67Q326.98-10.05 329.79-13.38L329.79-13.38L329.79-13.38Q330.56-14.27 331.52-14.27L331.52-14.27L331.52-14.27Q332.35-14.27 332.83-13.50L332.83-13.50L332.83-13.50Q333.31-12.74 333.31-11.39L333.31-11.39L333.31-11.39Q333.31-8.90 332.10-7.42L332.10-7.42L332.10-7.42Q328.96-3.65 325.95-1.66L325.95-1.66L325.95-1.66Q322.94 0.32 318.59 0.32L318.59 0.32L318.59 0.32Q314.11 0.32 311.36-2.27L311.36-2.27L311.36-2.27Q308.61-4.86 307.90-9.60L307.90-9.60L307.90-9.60Q303.17 0.32 293.95 0.32L293.95 0.32ZM354.05 0.32L354.05 0.32Q346.43 0.32 340.80-2.46L340.80-2.46L340.80-2.46Q335.17-5.25 332.16-10.37L332.16-10.37L332.16-10.37Q329.15-15.49 329.15-22.27L329.15-22.27L329.15-22.27Q329.15-31.68 332.70-38.98L332.70-38.98L332.70-38.98Q336.26-46.27 342.34-50.27L342.34-50.27L342.34-50.27Q348.42-54.27 355.84-54.27L355.84-54.27L355.84-54.27Q362.75-54.27 366.34-50.72L366.34-50.72L366.34-50.72Q369.92-47.17 369.92-41.34L369.92-41.34L369.92-41.34Q369.92-37.44 368.54-35.07L368.54-35.07L368.54-35.07Q367.17-32.70 364.61-32.70L364.61-32.70L364.61-32.70Q362.82-32.70 361.79-33.54L361.79-33.54L361.79-33.54Q360.77-34.37 360.77-35.97L360.77-35.97L360.77-35.97Q360.77-36.54 361.02-38.08L361.02-38.08L361.02-38.08Q361.41-40 361.41-41.15L361.41-41.15L361.41-41.15Q361.41-46.98 355.20-46.98L355.20-46.98L355.20-46.98Q350.98-46.98 347.14-44.22L347.14-44.22L347.14-44.22Q343.30-41.47 340.93-36.13L340.93-36.13L340.93-36.13Q338.56-30.78 338.56-23.42L338.56-23.42L338.56-23.42Q338.56-15.74 342.85-11.55L342.85-11.55L342.85-11.55Q347.14-7.36 355.52-7.36L355.52-7.36L355.52-7.36Q359.68-7.36 363.94-8.42L363.94-8.42L363.94-8.42Q368.19-9.47 373.38-11.65L373.38-11.65L373.38-11.65Q374.34-12.03 374.98-12.03L374.98-12.03L374.98-12.03Q376.00-12.03 376.51-11.26L376.51-11.26L376.51-11.26Q377.02-10.50 377.02-9.28L377.02-9.28L377.02-9.28Q377.02-5.38 372.80-3.52L372.80-3.52L372.80-3.52Q368.26-1.54 363.36-0.61L363.36-0.61L363.36-0.61Q358.46 0.32 354.05 0.32L354.05 0.32ZM388.16 0.32L388.16 0.32Q383.74 0.32 380.19-1.86L380.19-1.86L380.19-1.86Q376.64-4.03 374.59-8.16L374.59-8.16L374.59-8.16Q372.54-12.29 372.54-17.92L372.54-17.92L372.54-17.92Q372.54-27.65 376.70-35.94L376.70-35.94L376.70-35.94Q380.86-44.22 388.99-49.25L388.99-49.25L388.99-49.25Q397.12-54.27 408.51-54.27L408.51-54.27L408.51-54.27Q411.46-54.27 414.82-53.82L414.82-53.82L414.82-53.82Q418.18-53.38 420.93-52.48L420.93-52.48L420.93-52.48Q422.72-51.97 422.72-49.92L422.72-49.92L422.72-49.92Q422.72-48.26 421.47-46.78L421.47-46.78L421.47-46.78Q420.22-45.31 418.56-45.31L418.56-45.31L418.56-45.31Q418.05-45.31 417.79-45.38L417.79-45.38L417.79-45.38Q414.46-46.14 412.10-46.50L412.10-46.50L412.10-46.50Q409.73-46.85 407.10-46.85L407.10-46.85L407.10-46.85Q398.98-46.85 393.28-42.91L393.28-42.91L393.28-42.91Q387.58-38.98 384.77-32.51L384.77-32.51L384.77-32.51Q381.95-26.05 381.95-18.56L381.95-18.56L381.95-18.56Q381.95-13.12 384.10-10.14L384.10-10.14L384.10-10.14Q386.24-7.17 389.70-7.17L389.70-7.17L389.70-7.17Q393.60-7.17 396.54-10.37L396.54-10.37L396.54-10.37Q399.49-13.57 401.92-20.74L401.92-20.74L401.92-20.74Q404.35-27.90 406.72-40.19L406.72-40.19L406.72-40.19Q407.10-41.98 408.26-42.62L408.26-42.62L408.26-42.62Q409.41-43.26 411.33-43.26L411.33-43.26L411.33-43.26Q415.87-43.26 415.87-40.32L415.87-40.32L415.87-40.32Q415.87-39.81 415.68-39.04L415.68-39.04L415.68-39.04Q414.02-32.83 412.64-25.31L412.64-25.31L412.64-25.31Q411.26-17.79 411.26-13.89L411.26-13.89L411.26-13.89Q411.26-10.43 412.29-8.86L412.29-8.86L412.29-8.86Q413.31-7.30 415.42-7.30L415.42-7.30L415.42-7.30Q417.47-7.30 419.33-8.67L419.33-8.67L419.33-8.67Q421.18-10.05 424.00-13.38L424.00-13.38L424.00-13.38Q424.77-14.27 425.73-14.27L425.73-14.27L425.73-14.27Q426.56-14.27 427.04-13.50L427.04-13.50L427.04-13.50Q427.52-12.74 427.52-11.39L427.52-11.39L427.52-11.39Q427.52-8.90 426.30-7.42L426.30-7.42L426.30-7.42Q423.17-3.65 420.16-1.66L420.16-1.66L420.16-1.66Q417.15 0.32 412.80 0.32L412.80 0.32L412.80 0.32Q408.32 0.32 405.57-2.27L405.57-2.27L405.57-2.27Q402.82-4.86 402.11-9.60L402.11-9.60L402.11-9.60Q397.38 0.32 388.16 0.32L388.16 0.32Z" fill="#000"></path></g></g><style>text {
  font-size: 64px;
  font-family: Arial Black;
  dominant-baseline: central;
  text-anchor: middle;
}</style></svg>